<svg xmlns="http://www.w3.org/2000/svg" viewBox="0 0 749.35 164.99"><defs><style>.cls-1{fill:#e01d50;}.cls-2{fill:#211c51;}</style></defs><g id="Capa_2" data-name="Capa 2"><g id="Capa_1-2" data-name="Capa 1"><path class="cls-1" d="M671.32,151.25c.28-3.08-1.45-7.58.65-10.52,2.29-3.22,7.12-1.36,10.8-1.94,20-3.13,34.88-12.63,40.89-33,.88-3,2.24-4,5.42-3.16,5.44,1.53,10.94,2.91,16.49,4,3.8.72,4.37,2.26,3.31,5.87-8.36,28.5-31,47.87-60.58,51.45-4.45.54-8.95.69-13.43,1.08-2.61.23-3.63-1-3.57-3.49C671.37,158.31,671.32,155.14,671.32,151.25Z"/><path class="cls-2" d="M30.72,95.94c0,9-.07,18,.05,27,0,2.59-.56,3.76-3.44,4.2-6.48,1-12.88,1.38-19.3-.2-4.16-1-6.66-3.62-7.26-7.88a50.65,50.65,0,0,1-.68-6.93C0,95.78.19,79.46,0,63.14c-.1-8.42,3.56-14.36,10.73-18.28,12.11-6.6,25.18-8.48,38.67-6.71C60.41,39.59,65.12,50,60.05,60c-1.17,2.3-2.71,2-4.51,1.85-6.85-.57-13.59-.3-20.24,1.83C32,64.73,30.46,66.15,30.61,70,31,78.61,30.72,87.28,30.72,95.94Z"/><path class="cls-2" d="M303.79,87.37c0,11.31-.26,22.63.13,33.93.15,4.36-1.34,5.91-5.35,6.2-5.81.44-11.57.95-17.33-.52-4.88-1.24-7.39-4.32-7.63-9.19s-.25-9.63-.25-14.45c0-19.3.1-38.59-.12-57.89,0-3.75,1.3-5,4.69-5.25A81.25,81.25,0,0,1,291.88,40c8.12.74,11.72,4.35,11.84,12.48.18,11.64,0,23.29,0,34.93Z"/><path class="cls-2" d="M288.47,32.05c-10,0-16.68-6.19-16.77-15.62S278.55,0,288.41,0s16.9,6.76,16.77,16.37S298.52,32,288.47,32.05Z"/><path class="cls-2" d="M596.37,44a66.62,66.62,0,0,0-40.31-5.81C540.67,40.65,529,48.28,523.6,63.46a53.42,53.42,0,0,0,.18,36.25c4.3,12.19,13,19.79,26,22.22,8.29,1.55,16.58,1.69,24.71-.62,3.52-1,4,.23,3.83,3.24-.36,6.71-3.49,10.31-11,12.23-11,2.82-21.56.73-31.49-4-3.81-1.82-5.33-.67-7,2.28-5.53,9.57-1.22,20.31,10,23.68,15,4.52,30.29,4.77,45.15-.44,13.71-4.81,22.36-14.39,22.91-29.49.44-11.8.09-23.63.09-35.44h.23c0-10.66-.25-21.32.08-32C607.45,53,603.66,47.47,596.37,44ZM577.8,67c-.31,4.62-.08,9.29-.08,13.94,0,4.32-.18,8.65.07,13,.16,2.86-1.06,4.08-3.56,5-12,4.65-22.05-1.63-22.69-14.34a62.15,62.15,0,0,1,0-7c.75-12.14,10.51-19,22.27-15.73C576.57,62.66,578,63.79,577.8,67Z"/><path class="cls-2" d="M256.82,71.27c-2.16-13.29-8.91-23.51-21.31-28.68-20.11-8.37-40.24-7.35-59.64,2.72-5.58,2.9-8.09,8-8.06,14.46.07,14.3,0,28.61,0,42.92,0,6,0,12,0,18,0,8.65-.13,17.31.11,25.95s3.43,12,12,13c4.81.59,9.61.08,14.42-.44,3.33-.36,4.51-1.48,4.39-4.93-.26-7.47.15-15-.17-22.45-.17-3.92.74-4.43,4.54-3.61,18.33,4,40.78-2,50.32-22.72C258.42,94.53,258.73,83,256.82,71.27ZM225.72,91c-2.16,11.31-13.12,17.2-24,13.12-2.43-.9-3.38-2.06-3.29-4.66.18-5.48.06-11,.06-16.47,0-5.33.09-10.65-.05-16-.06-2.36.73-3.49,3-4.35,12.54-4.74,22.89,1.27,24.71,14.43A42.65,42.65,0,0,1,225.72,91Z"/><path class="cls-2" d="M412,73.71c-1.53-13.23-7.32-24.17-19.55-30-20.69-9.85-41.57-8.72-61.86,1.61-5.38,2.74-7.94,7.72-7.89,14,.12,14.31,0,28.62,0,42.94v5.49c0,12.81-.08,25.63,0,38.44.08,8.87,3.3,12.37,12.06,13.4,4.82.56,9.61.06,14.43-.47,3.15-.34,4.25-1.46,4.15-4.67-.22-7.32.13-14.65-.14-22-.16-4,.31-5.14,5-4.27,16.24,3,31.28.08,43-12.5C412.41,103.83,413.83,89.08,412,73.71Zm-32.2,19.63c-3.47,10.1-13.94,14.71-23.76,10.63-2-.84-2.78-1.91-2.74-4.06.12-5.65,0-11.3,0-17,0-5.16.23-10.32-.08-15.46-.2-3.22,1.29-4.37,4-5.22,12.45-4,21.91,1.9,23.72,14.82A34.78,34.78,0,0,1,379.84,93.34Z"/><path class="cls-2" d="M668.92,37.14c-28-.21-47.18,18.55-47.23,46.2,0,28.15,18.23,46.19,46.83,46.23,28.83,0,47.07-17.72,47.08-45.84S697.21,37.35,668.92,37.14Zm13.41,58.91a14.18,14.18,0,0,1-14.26,9.68c-6.42-.43-11.38-4.51-13.33-11a36.89,36.89,0,0,1-1.34-11.36A35,35,0,0,1,654.81,72c2-6.43,7.21-10.6,13.45-10.87a14.38,14.38,0,0,1,14.15,9.89A37.74,37.74,0,0,1,682.33,96.05Z"/><path class="cls-2" d="M506.53,88.86c0-6.66.19-13.32,0-20C506.08,57.44,501.6,48,490.86,43c-17.68-8.24-35.94-7.43-53.95-1.45-7.92,2.63-10.19,10.15-6.86,18.1,1.64,3.93,3.59,6.17,8.69,4.18,9.25-3.59,19-4.92,28.89-2.94,3.67.73,7.13,2,8.57,6,.84,2.29,1,3.94-2.47,4.23-8.78.74-17.58,1.57-26.27,3C438.57,75.61,430,78.68,426,87.67c-5.63,12.69-3.87,31.33,15.67,38.24,9.58,3.39,19.48,4.21,29.51,3.48,10.51-.77,20.83-2.34,29.59-9a13.52,13.52,0,0,0,5.74-11.54C506.46,102.17,506.53,95.51,506.53,88.86Zm-37.68,18c-3.47.3-7,.48-10.39-.54s-5.43-3.47-5.55-6.88,2.3-5.39,5.37-6.35c5.3-1.66,10.9-1.05,16.3-2,1.5-.26,2.18.31,2.17,1.81,0,1.83,0,3.66,0,5.48C476.76,106.15,476.77,106.19,468.85,106.89Z"/><path class="cls-2" d="M149.75,107.61c-.37-6.3-.08-12.64-.08-19,0-6.66.11-13.32,0-20-.25-11.83-5.26-21.14-16.19-26-17.57-7.79-35.72-7.16-53.52-1C71.49,44.66,69.52,53.05,74,61.17c1.64,3,3.4,4.19,7.16,2.85,9.48-3.37,19.27-5.15,29.38-3.14,3.67.73,7.2,1.86,8.75,5.72.94,2.34,1.37,4.52-2.58,4.51a68.16,68.16,0,0,0-9.41,1c-8,1.12-16.26,1.07-24,3.92C73.79,79.5,67.94,85.85,66.78,96c-1.29,11.29,1.9,20.74,12.08,27,7.14,4.36,15.13,6,23.31,6.41,13.75.72,27.3,0,39.57-7.36C147.15,118.73,150.14,114.28,149.75,107.61Zm-37.81-.7a29.2,29.2,0,0,1-9.42-.34c-3.77-.91-6.33-3.16-6.34-7.22,0-3.77,2.69-5.47,5.94-6.4,5.17-1.47,10.58-.89,15.81-1.82,1.59-.28,2.07.58,2.08,2,0,1.66,0,3.32,0,5C120,106.19,120,106.21,111.94,106.91Z"/></g></g></svg>